<svg xmlns="http://www.w3.org/2000/svg" viewBox="0 0 3551.83 1886.69"><defs><style>.cls-1{fill:none;}.cls-2{fill:#fff;isolation:isolate;}</style></defs><g id="Layer_2" data-name="Layer 2"><g id="Layer_1-2" data-name="Layer 1"><polygon class="cls-1" points="1629.14 310.29 1630.19 308.58 1628.59 309.51 1629.14 310.29"/><polygon class="cls-1" points="1873.52 287.4 1876.33 292.37 1878.36 289.47 1874.7 286.49 1873.52 287.4"/><polygon class="cls-1" points="1804.05 267.59 1804.32 266.97 1803.91 267.3 1804.05 267.59"/><polygon class="cls-1" points="1913.24 306.11 1918.07 311.99 1921.54 307.04 1916.21 303.82 1913.24 306.11"/><polygon class="cls-1" points="1547.58 315.87 1548.39 318.01 1548.94 316.76 1547.58 315.87"/><polygon class="cls-1" points="1328.22 339.59 1331.03 344.56 1333.06 341.66 1329.4 338.68 1328.22 339.59"/><polygon class="cls-1" points="1553.03 307.43 1553.82 305.61 1552.68 306.46 1553.03 307.43"/><polygon class="cls-1" points="1367.94 358.3 1372.77 364.18 1376.24 359.23 1370.91 356.01 1367.94 358.3"/><polygon class="cls-1" points="2342.69 456.82 2343.74 455.12 2342.13 456.04 2342.69 456.82"/><polygon class="cls-1" points="1258.75 319.78 1259.02 319.16 1258.61 319.49 1258.75 319.78"/><polygon class="cls-1" points="2517.59 414.12 2517.86 413.5 2517.45 413.83 2517.59 414.12"/><polygon class="cls-1" points="2719.44 494.74 2722.64 489.81 2718.64 493.14 2719.44 494.74"/><polygon class="cls-1" points="3048.3 566.15 3048.57 565.53 3048.16 565.86 3048.3 566.15"/><polygon class="cls-1" points="3117.77 585.97 3120.57 590.94 3122.61 588.03 3118.95 585.06 3117.77 585.97"/><polygon class="cls-1" points="2947.33 555.16 2947.45 555.29 2947.61 554.96 2947.33 555.16"/><polygon class="cls-1" points="2587.06 433.94 2589.87 438.9 2591.9 436 2588.24 433.03 2587.06 433.94"/><polygon class="cls-1" points="2700.62 498.89 2702.34 495.41 2698.97 496.88 2700.62 498.89"/><polygon class="cls-1" points="2626.78 452.64 2631.61 458.53 2635.08 453.58 2629.75 450.35 2626.78 452.64"/><polygon class="cls-1" points="1083.85 362.48 1084.9 360.77 1083.29 361.7 1083.85 362.48"/><polygon class="cls-1" points="3152.45 556.79 3152.12 557.04 3157.32 570.82 3184.44 532.14 3156.3 553.82 3159.77 559.96 3152.45 556.79"/><path class="cls-1" d="M3243.43,632.23l4.14-9c-6.32-1.37-11.59-2.28-11-1.33Z"/><polygon class="cls-1" points="3418.85 696.74 3405.42 706.97 3410.67 714.68 3418.85 696.74"/><polygon class="cls-1" points="3131.45 575.43 3123.48 581.57 3124.81 584.89 3131.45 575.43"/><path class="cls-1" d="M3318.28,670.31l-4.46,3,2.39,1Z"/><polygon class="cls-1" points="3045.21 541.53 3032.76 532.45 3041.38 551.15 3045.21 541.53"/><polygon class="cls-1" points="3050.78 527.55 3044.83 530.92 3047.58 535.57 3050.78 527.55"/><polygon class="cls-1" points="3117.76 584.09 3115.81 582.51 3117.16 584.89 3117.76 584.09"/><polygon class="cls-1" points="554.3 500.13 555.35 498.43 553.75 499.35 554.3 500.13"/><polygon class="cls-1" points="269.55 635.88 264.51 639.44 266.1 643.64 269.55 635.88"/><polygon class="cls-1" points="838.4 495.95 843.23 501.84 846.7 496.89 841.37 493.66 838.4 495.95"/><polygon class="cls-1" points="963.11 416.48 963.72 417.51 963.96 416.98 963.11 416.48"/><polygon class="cls-1" points="729.21 457.43 729.48 456.81 729.07 457.14 729.21 457.43"/><polygon class="cls-1" points="798.68 477.25 801.48 482.21 803.52 479.31 799.86 476.34 798.68 477.25"/><polygon class="cls-1" points="345.6 602.17 348.21 598.23 344.53 600.31 345.6 602.17"/><polygon class="cls-1" points="433.57 554.13 434.18 555.17 434.42 554.63 433.57 554.13"/><polygon class="cls-1" points="3163.28 599.75 3165.07 597.78 3162.68 598.48 3163.28 599.75"/><polygon class="cls-1" points="1508.41 364.29 1509.02 365.32 1509.26 364.79 1508.41 364.29"/><polygon class="cls-1" points="1442.56 311.7 1440.67 310.88 1432.08 315.28 1435.9 325.41 1442.56 311.7"/><polygon class="cls-1" points="1002.28 368.06 1004.39 373.64 1006.23 370.65 1002.28 368.06"/><polygon class="cls-1" points="722.31 466.79 723.98 469.36 724.44 468.3 722.31 466.79"/><polygon class="cls-1" points="1151.4 315.43 1153.29 318.05 1153.95 316.75 1151.4 315.43"/><polygon class="cls-1" points="1251.85 329.14 1253.52 331.71 1253.98 330.65 1251.85 329.14"/><polygon class="cls-1" points="628.52 446.24 628.24 446.44 628.35 446.57 628.52 446.24"/><polygon class="cls-1" points="1158.06 308.59 1157.78 308.79 1157.89 308.92 1158.06 308.59"/><polygon class="cls-1" points="1143.71 292.23 1146.21 295.17 1146.9 293.66 1143.71 292.23"/><polygon class="cls-1" points="1012.45 378.06 1007.41 381.62 1009 385.82 1012.45 378.06"/><polygon class="cls-1" points="341.2 608.84 335.13 605.62 331.82 607.49 337.15 614.97 341.2 608.84"/><polygon class="cls-1" points="220.21 674.29 220.82 675.34 221.07 674.8 220.21 674.29"/><polygon class="cls-1" points="259.38 625.88 261.49 631.46 263.33 628.47 259.38 625.88"/><polygon class="cls-1" points="621.86 453.09 623.75 455.7 624.41 454.4 621.86 453.09"/><polygon class="cls-1" points="614.17 429.88 616.67 432.82 617.36 431.31 614.17 429.88"/><polygon class="cls-1" points="472.74 505.71 474.85 511.29 476.69 508.31 472.74 505.71"/><polygon class="cls-1" points="482.91 515.71 477.87 519.28 479.46 523.47 482.91 515.71"/><polygon class="cls-1" points="2261.12 462.4 2263.23 467.98 2265.07 465 2261.12 462.4"/><polygon class="cls-1" points="2933.26 538.6 2935.76 541.54 2936.45 540.03 2933.26 538.6"/><path class="cls-1" d="M3254.92,624.93l-11.47,7.33,3.33,5L3255.4,625Z"/><polygon class="cls-1" points="3041.4 575.51 3043.07 578.09 3043.53 577.02 3041.4 575.51"/><polygon class="cls-1" points="2714.02 483.9 2715.26 486.39 2716.16 485.12 2714.02 483.9"/><path class="cls-1" d="M2941.27,562.25l.91.19-1.23-.63Z"/><path class="cls-1" d="M3251.59,644.54l1.75-2.7-2.28,1.9C3251.24,644,3251.42,644.27,3251.59,644.54Z"/><polygon class="cls-1" points="2510.69 423.48 2512.36 426.05 2512.83 424.99 2510.69 423.48"/><polygon class="cls-1" points="2940.95 530.23 2950.7 508.97 2934.01 517.18 2940.95 530.23"/><polygon class="cls-1" points="1443.19 310.4 1443.71 309.32 1442.9 309.74 1443.19 310.4"/><polygon class="cls-1" points="2416.91 402.93 2416.62 403.13 2416.74 403.26 2416.91 402.93"/><polygon class="cls-1" points="1689.01 240.04 1691.51 242.98 1692.2 241.47 1689.01 240.04"/><polygon class="cls-1" points="1797.15 276.95 1798.82 279.52 1799.29 278.46 1797.15 276.95"/><polygon class="cls-1" points="1696.7 263.24 1698.59 265.86 1699.25 264.56 1696.7 263.24"/><polygon class="cls-1" points="1703.36 256.4 1703.08 256.6 1703.19 256.73 1703.36 256.4"/><polygon class="cls-1" points="2402.55 386.57 2405.05 389.51 2405.75 388 2402.55 386.57"/><polygon class="cls-1" points="2410.24 409.78 2412.13 412.39 2412.79 411.09 2410.24 409.78"/><polygon class="cls-1" points="3156.83 600.19 3154.39 600.9 3158.11 605.43 3160.73 602.55 3156.83 600.19"/><polygon class="cls-1" points="1087.64 327.21 1080.3 330.18 1083.19 335.17 1087.64 327.21"/><polygon class="cls-1" points="857.88 480.94 844.35 491.37 846.83 496.7 857.88 480.94"/><polygon class="cls-1" points="1147.14 264.01 1138.76 260.09 1144.01 269.96 1147.14 264.01"/><polygon class="cls-1" points="1076.56 347.01 1070.56 343.83 1074.92 349.95 1076.56 347.01"/><polygon class="cls-1" points="1151.4 283.86 1161.15 262.59 1144.46 270.81 1151.4 283.86"/><polygon class="cls-1" points="975.74 366.44 972.99 368.45 974.03 370.34 975.74 366.44"/><polygon class="cls-1" points="898.41 361.51 886.96 367.38 891.04 376.69 898.41 361.51"/><polygon class="cls-1" points="973.69 371.11 971.25 369.72 964.67 374.52 967.61 367.65 952.33 358.96 967.33 385.63 973.69 371.11"/><polygon class="cls-1" points="1551.01 292.32 1544.48 283.54 1549.16 296.62 1551.01 292.32"/><polygon class="cls-1" points="1018.82 350.19 1007.38 358.65 1009.67 365.06 1018.82 350.19"/><polygon class="cls-1" points="1261.23 281.17 1255.28 284.55 1258.03 289.2 1261.23 281.17"/><polygon class="cls-1" points="1518.99 318.92 1516.55 317.53 1509.97 322.33 1512.9 315.46 1497.63 306.77 1512.63 333.44 1518.99 318.92"/><polygon class="cls-1" points="1387.42 343.29 1373.89 353.72 1376.38 359.04 1387.42 343.29"/><polygon class="cls-1" points="1521.04 314.25 1518.29 316.26 1519.33 318.15 1521.04 314.25"/><polygon class="cls-1" points="1450.01 258.19 1435.61 273.29 1438.84 280.67 1433.52 275.47 1432.93 276.09 1433.26 275.22 1423.19 265.39 1434.76 291.41 1450.01 258.19"/><polygon class="cls-1" points="1328.21 337.72 1326.26 336.13 1327.61 338.51 1328.21 337.72"/><polygon class="cls-1" points="1341.9 329.05 1333.93 335.19 1335.26 338.52 1341.9 329.05"/><polygon class="cls-1" points="1365.88 352.96 1361.27 350.18 1364.76 354.43 1365.88 352.96"/><polygon class="cls-1" points="1255.66 295.15 1243.21 286.08 1251.83 304.78 1255.66 295.15"/><polygon class="cls-1" points="444.15 508.76 441.71 507.38 435.13 512.18 438.06 505.3 422.79 496.61 437.79 523.29 444.15 508.76"/><polygon class="cls-1" points="275.92 608.01 264.48 616.47 266.77 622.88 275.92 608.01"/><polygon class="cls-1" points="360.79 556.68 334.73 569.47 336.66 565.5 318.11 554.68 337.01 587.32 360.79 556.68"/><polygon class="cls-1" points="446.19 504.1 443.45 506.1 444.49 507.99 446.19 504.1"/><polygon class="cls-1" points="489.27 487.85 477.84 496.3 480.13 502.71 489.27 487.85"/><polygon class="cls-1" points="232.84 624.26 230.09 626.27 231.13 628.16 232.84 624.26"/><polygon class="cls-1" points="230.79 628.93 228.35 627.54 221.78 632.34 224.71 625.47 209.43 616.78 224.43 643.45 230.79 628.93"/><polygon class="cls-1" points="836.34 490.62 831.73 487.83 835.22 492.08 836.34 490.62"/><polygon class="cls-1" points="798.67 475.37 796.72 473.79 798.07 476.17 798.67 475.37"/><polygon class="cls-1" points="731.69 418.83 725.74 422.2 728.49 426.85 731.69 418.83"/><polygon class="cls-1" points="812.36 466.71 804.39 472.85 805.72 476.17 812.36 466.71"/><polygon class="cls-1" points="547.02 484.67 541.02 481.48 545.38 487.6 547.02 484.67"/><polygon class="cls-1" points="726.12 432.81 713.67 423.73 722.29 442.43 726.12 432.81"/><polygon class="cls-1" points="558.1 464.87 550.76 467.83 553.65 472.82 558.1 464.87"/><polygon class="cls-1" points="617.6 401.66 609.22 397.75 614.47 407.62 617.6 401.66"/><polygon class="cls-1" points="621.86 421.51 631.61 400.25 614.92 408.46 621.86 421.51"/><polygon class="cls-1" points="2624.72 447.31 2620.12 444.52 2623.61 448.77 2624.72 447.31"/><polygon class="cls-1" points="2600.74 423.4 2592.77 429.54 2594.1 432.86 2600.74 423.4"/><polygon class="cls-1" points="2587.06 432.06 2585.11 430.48 2586.45 432.86 2587.06 432.06"/><polygon class="cls-1" points="2936.69 510.39 2928.31 506.47 2933.56 516.34 2936.69 510.39"/><polygon class="cls-1" points="2646.27 437.63 2632.73 448.06 2635.22 453.39 2646.27 437.63"/><polygon class="cls-1" points="2410.24 378.2 2419.99 356.94 2403.3 365.15 2410.24 378.2"/><polygon class="cls-1" points="2520.07 375.52 2514.12 378.89 2516.88 383.54 2520.07 375.52"/><polygon class="cls-1" points="2696.02 486.54 2685.02 479.88 2694.26 491.13 2696.02 486.54"/><polygon class="cls-1" points="2405.98 358.35 2397.6 354.44 2402.85 364.31 2405.98 358.35"/><polygon class="cls-1" points="2514.51 389.5 2502.05 380.42 2510.67 399.12 2514.51 389.5"/><path class="cls-1" d="M2888.74,537.17l-19.35,10.48,11.23,2.18Z"/><polygon class="cls-1" points="2346.49 421.56 2339.14 424.52 2342.03 429.51 2346.49 421.56"/><path class="cls-1" d="M2851.1,544.17l1.57.3-2.11-1.24Z"/><polygon class="cls-1" points="2784.9 527.75 2789.58 518.28 2783.29 522.35 2784.9 527.75"/><polygon class="cls-1" points="1621.86 294.82 1615.86 291.64 1620.22 297.76 1621.86 294.82"/><polygon class="cls-1" points="2725.24 472.24 2719.77 475.74 2721 478.25 2725.24 472.24"/><path class="cls-1" d="M2778.14,525.69l-6.76,4.38,4.79.8Z"/><polygon class="cls-1" points="2707.26 457.19 2689.49 442.53 2702.34 470.04 2707.26 457.19"/><path class="cls-1" d="M2759.91,528.17l-10.55-6.89,4.49,5.9Z"/><polygon class="cls-1" points="1932.72 291.1 1919.19 301.53 1921.67 306.85 1932.72 291.1"/><polygon class="cls-1" points="1800.96 242.96 1788.51 233.89 1797.13 252.59 1800.96 242.96"/><polygon class="cls-1" points="1911.18 300.77 1906.57 297.99 1910.06 302.24 1911.18 300.77"/><polygon class="cls-1" points="1873.51 285.53 1871.56 283.94 1872.91 286.32 1873.51 285.53"/><polygon class="cls-1" points="1887.2 276.86 1879.23 283 1880.56 286.33 1887.2 276.86"/><polygon class="cls-1" points="2335.4 441.36 2329.4 438.17 2333.76 444.29 2335.4 441.36"/><polygon class="cls-1" points="1632.94 275.02 1625.6 277.99 1628.49 282.98 1632.94 275.02"/><polygon class="cls-1" points="1696.7 231.67 1706.45 210.4 1689.76 218.62 1696.7 231.67"/><polygon class="cls-1" points="1692.44 211.82 1684.06 207.9 1689.31 217.77 1692.44 211.82"/><polygon class="cls-1" points="1806.53 228.98 1800.58 232.35 1803.33 237.01 1806.53 228.98"/><path class="cls-1" d="M2230.77,469.48l1.76-4-2.44-1.39-6.57,4.81,2.93-6.88-15.28-8.69,8.71,15.48Z"/><polygon class="cls-1" points="2152.92 464.78 2157.26 455.86 2149.54 459.81 2152.92 464.78"/><polygon class="cls-1" points="2234.58 460.79 2231.84 462.79 2232.87 464.68 2234.58 460.79"/><polygon class="cls-1" points="2277.66 444.54 2266.22 452.99 2268.51 459.4 2277.66 444.54"/><polygon class="cls-1" points="2000.17 350.7 1991.58 357.84 1996.08 363.32 2009.09 343.28 2001.13 349.9 2002.03 351.83 2000.17 350.7"/><polygon class="cls-1" points="1995.9 348.12 1971.47 333.35 1990.22 356.18 1995.9 348.12"/><polygon class="cls-1" points="2146.9 441 2130.46 431.82 2142.8 449.92 2146.9 441"/><path class="cls-2" d="M3469.5,760.09l-1.1-2.73,16.37,13.74-23.89-46.47,17.26,12.52-23.45-38.79,12.83,8.08L3450.71,662l11.06,7.27-14.16-39.6L3456,641l-10.18-34.75,6.2,6.46-8.41-21.82,5.75,3.23-8.92-29.9-9.22,24.25,6.64-4.85-12,30.71,7.27-7.28-13,29.1,10.14-8.08-17.22,40.41,11.06-8.08-19.75,45.11-22.23-32.62,22.87,12.79-30-70.3,19.72,11.5-25.24-62.63,15,17.89-18.14-55,11,10.23-15-34.52,10.25,5.12-15.91-47.3L3340.37,499l11.83-7.67-21.3,48.57,12.95-11.5-23.2,46,18.08-12.78L3308,625.57l19.72-12.78-27.16,55q-4.68-1.92-9.45-3.83l-8-18.47L3297,657.86l-15.42-44.12,10.8,5.06L3278,591.27l10.79,3.93L3277,550.81l-27,48.94,11.14-5.91L3253.23,611l-30-36.6,30.55,18.49-26.08-55.83,20.12,16.59-22.35-59.22,15.64,6.79-20.86-47,15.65,15.28-26.14-59.6-30.12,65.72,16.15-11.95L3170,519.32l18.18-10.76-33,43.35-5.89-10.43,7.83,2.64-8.57-29.8L3129,547.18l8.07-4L3124.25,569l9.08-5.38-11.16,14.66-12.55-31.36L3126,560.68l-23.89-46.47,17.25,12.53-23.45-38.8,12.83,8.09-16.81-44.46,11.06,7.28-14.15-39.61,8.4,11.32-10.17-34.76,6.19,6.47-8.41-21.82,5.76,3.23-8.93-29.91L3072.46,378l6.63-4.85-11.94,30.71,7.26-7.27-13,29.1,10.13-8.08L3054.32,458l11.06-8.08-21.24,48.49,15.93-12.12L3042,526.05l-19.68-33.23L3046.33,508l-32.7-47,17.89,9.78L3008.08,417l15.42,8.81-19.74-48,11.72,13.7-14.19-42.08,8.64,7.83-11.72-26.42,8,3.91-12.45-36.21-12.85,29.36,9.25-5.87-16.65,37.19,10.12-8.81-18.15,35.23,14.14-9.78-24,48.93,15.43-9.79-29.62,58.72,22.21-14.68-24.87,47.34-14.32-28.49,10.44,10-12.64-30.7,7.7,5.71-10.44-19.28,7.14,2.86-11.08-26.42-11.45,21.42,8.24-4.28-14.84,27.13,9-6.43-16.17,25.71,12.6-7.14-21.39,35.7,13.74-7.14-26.2,42.56-4.73-.91-11.18-16.34,3.41,2-2.13-5.28,8,4.23-23.1-41.7-8-19.89,15,17.9-18.14-55,11,10.22-15-34.51,10.26,5.11-15.91-47.29-16.43,38.35,11.83-7.67-21.3,48.57,12.95-11.51-23.2,46,18.07-12.78-30.14,62.75-2.37-.39-15.59-36.05,13.88,12.37-15.42-44.12,10.79,5.06-14.39-27.53,10.79,3.93-11.82-44.39-27,48.94,11.14-5.91-13.23,28.67-8.43-17.25-.7,1.84-20.83-55.16,15.65,6.79-20.86-47L2697.69,375l-26.14-59.6-30.13,65.71,16.15-11.94-25.71,55.62L2650,414l-20.57,27-7.12-15.22,10.06,8.3-11.18-29.61,7.83,3.39-10.43-18.48,7.82,2.64-8.57-29.8-19.56,32.85,8.08-4L2593.54,417l9.09-5.38-11.16,14.67-12.56-31.36,16.37,13.74-23.89-46.47,17.26,12.53-23.45-38.8L2578,344l-16.81-44.45,11.06,7.27-14.16-39.6,8.41,11.32-10.18-34.76,6.19,6.47-8.4-21.83,5.75,3.24L2551,201.74,2541.75,226l6.64-4.85-11.95,30.71,7.26-7.27-13,29.1,10.14-8.09L2523.61,306l11.06-8.09-21.24,48.5,15.93-12.13L2511.24,374l-19.68-33.23L2515.63,356l-32.71-47,17.9,9.79L2477.37,265l15.43,8.8-19.75-47.95,11.73,13.7-14.2-42.08,8.64,7.83-11.72-26.42,8,3.91-12.44-36.21-12.86,29.36,9.26-5.87-16.66,37.19L2453,198.4l-18.15,35.23,14.14-9.79-24,48.94,15.42-9.79-29.62,58.72L2433,307l-24.87,47.33-14.32-28.49,10.44,10-12.64-30.7,7.69,5.71-10.44-19.28,7.14,2.86L2384.87,268l-11.45,21.42,8.24-4.29-14.84,27.14,9-6.43-16.17,25.71,12.59-7.14-21.39,35.7,13.74-7.14-26.38,42.84L2358,385.14l-21.91,34.16-16.27-28.1L2339,402.35l-20.7-30.25,13.53,7.16-23.37-42.19-32.35,60.5,16.17-4.78L2264.43,448l-6.4-17.92,8.4,11.32-10.17-34.76,6.19,6.47-8.4-21.82,5.75,3.23-8.93-29.91-9.21,24.25,6.63-4.85-11.94,30.72,7.26-7.28-13,29.1,10.14-8.08-12.13,28.45-29.94-54.74L2219.26,415l-26.43-46,14.75,11.5-24.26-48.57,13.47,7.67-18.71-38.35L2160,348.49l11.68-5.12-17.07,34.52,12.58-10.23-20.66,55,17.07-17.89-14.11,30.73-26.08-61.16,19.72,11.5-25.24-62.63,15,17.9-18.14-55,11,10.23-15-34.51,10.26,5.11-15.91-47.29L2088.65,258l11.84-7.67-21.3,48.58,12.95-11.51-23.21,46L2087,320.62l-30.7,63.91L2076,371.74l-13.72,27.79a117,117,0,0,0-15.37-10.15l-11.12-14.63,21.08,13.76-18-41.58,13.87,12.36-15.42-44.11,10.8,5.06-14.39-27.54,10.79,3.94-11.82-44.4-27,48.95,11.14-5.92-17.73,38.45,12.53-8-13.15,18.66L1976,296l20.12,16.6-22.36-59.22,15.65,6.79-20.87-47,15.65,15.28L1958,168.88l-30.12,65.71L1944,222.65l-25.71,55.62,18.18-10.76-20.58,27-7.11-15.22,10.06,8.3L1907.69,258l7.83,3.4-10.44-18.49,7.83,2.65-8.57-29.81-19.56,32.86,8.07-4L1880,270.45l9.08-5.38-11.16,14.67-12.55-31.36,16.37,13.74-23.89-46.47,17.25,12.52-23.44-38.79,12.83,8.08L1847.67,153l11.06,7.27-14.15-39.6L1853,132l-10.17-34.75,6.19,6.46-8.41-21.82,5.76,3.23-8.93-29.9-9.21,24.25,6.63-4.85-11.94,30.71,7.26-7.27-13,29.09,10.13-8.08-17.21,40.41,11.06-8.08-21.24,48.5,15.93-12.13-18.12,39.73L1778,194.26l24.06,15.16-32.7-47,17.89,9.79-23.44-53.83,15.42,8.81-19.74-47.95L1771.23,93,1757,50.89l8.64,7.83L1754,32.29l8,3.92L1749.53,0l-12.85,29.36,9.26-5.87-16.66,37.18,10.12-8.8L1721.25,87.1l14.14-9.79-24,48.93,15.43-9.78-29.62,58.71,22.21-14.68-24.87,47.34-14.32-28.49,10.45,10L1678,158.63l7.7,5.72-10.44-19.28,7.14,2.85-11.08-26.42-11.45,21.43,8.24-4.29-14.84,27.13,9-6.42-16.17,25.7,12.6-7.14-21.39,35.71,13.74-7.14-26.38,42.84,19.79-10.71-21.92,34.16-16.26-28.1,19.1,11.14-20.69-30.25,13.53,7.17-23.37-42.19L1562.52,251l16.18-4.78L1562.2,279l-2.41-7.17-8.11,18.91-9-30.64,6.2,6.47-8.41-21.83,5.75,3.24-8.92-29.91-9.22,24.25,6.64-4.85-11.94,30.71,7.26-7.27-13,29.1,10.14-8.09-12.12,28.45-30-54.73,20.6,12.78-26.44-46,14.75,11.5-24.26-48.57,13.48,7.67-18.72-38.35L1446.41,202l11.68-5.11L1441,231.35l12.58-10.22-18.87,50.17-22-50.23-30.12,65.71,16.15-11.94L1373,330.46l18.18-10.76-20.58,27-7.11-15.22,10.06,8.3-11.18-29.62,7.83,3.4-10.44-18.49,7.83,2.64-8.57-29.8-19.56,32.86,8.07-4-12.85,25.81,9.09-5.38-11.17,14.67-12.55-31.36,16.37,13.74-23.89-46.47,17.25,12.52-23.45-38.79,12.84,8.08-16.82-44.45,11.06,7.27-14.15-39.6,8.4,11.31-10.17-34.75,6.19,6.46-8.41-21.82,5.76,3.23-8.93-29.9-9.21,24.25,6.63-4.85-11.94,30.71,7.26-7.27-13,29.09,10.13-8.08-17.21,40.41,11.06-8.08-21.24,48.5L1270.52,240l-18.12,39.73-19.68-33.23,24.06,15.16-32.7-47,17.89,9.79-23.44-53.83,15.42,8.81-19.74-47.95,11.72,13.7-14.19-42.08,8.64,7.83-11.72-26.43,8,3.92-12.45-36.21-12.85,29.36,9.26-5.87L1184,112.86l10.12-8.8L1176,139.29l14.13-9.79-24,48.93,15.43-9.78-29.62,58.71,22.21-14.68L1149.23,260l-14.32-28.49,10.45,10-12.65-30.71,7.7,5.72L1130,197.26l7.14,2.85L1126,173.69l-11.45,21.42,8.24-4.28L1108,218l9-6.42-16.17,25.7,12.6-7.14L1092,265.81l13.74-7.14-26.38,42.84,19.79-10.71L1077.27,325,1061,296.86l19.1,11.14-20.69-30.25,13.53,7.17-23.37-42.19-32.36,60.5,16.18-4.78-27.81,55.19-6.41-17.91,8.41,11.31-10.18-34.75,6.2,6.47-8.41-21.83,5.75,3.24L992,270.26l-9.22,24.25,6.64-4.85-11.94,30.71,7.26-7.27-13,29.09,10.14-8.08-12.12,28.45-29.95-54.73,20.6,12.78L934,274.6l14.75,11.5-24.26-48.57L938,245.2l-18.72-38.35-18.12,47.29L912.79,249l-17.07,34.51,12.58-10.22-20.67,55,17.08-17.9L876,373l.86-.44L853,424.43l16.15-11.94-25.71,55.62,16.19-9.58-17,21.85,2.5-1.41-4.12,5.41L834,469.16l10.06,8.3-11.18-29.61,7.83,3.39-10.44-18.48,7.83,2.64-8.57-29.8-19.56,32.85,8.07-4-12.86,25.81,9.09-5.38-11.16,14.67-12.55-31.36L806.9,452,783,405.49,800.26,418l-23.45-38.8,12.83,8.08-16.81-44.45,11.06,7.27-14.15-39.6,8.4,11.32L768,287.08l6.19,6.47-8.41-21.83L771.5,275l-8.92-29.91-9.21,24.25,6.63-4.85-11.94,30.71,7.26-7.27-13,29.1,10.13-8.09-17.21,40.42,11.06-8.09-21.24,48.5L741,377.6l-18.12,39.73L703.18,384.1l24.06,15.17-32.7-47,17.89,9.79L689,308.26l15.42,8.8-19.74-47.95,11.72,13.7L682.2,240.73l8.64,7.83-11.72-26.42,8,3.91-12.45-36.21L661.84,219.2l9.25-5.87-16.65,37.19,10.12-8.81-18.15,35.23,14.14-9.79-24,48.94L652,306.3,622.35,365l22.21-14.68-24.87,47.33-14.32-28.49,10.44,10-12.64-30.7,7.7,5.71-10.45-19.28,7.15,2.86-11.09-26.42L585,332.77l8.25-4.29-14.84,27.14,9-6.43L571.29,374.9l12.6-7.14-21.39,35.7,13.74-7.14-26.38,42.84,19.79-10.71-21.92,34.16-16.26-28.1,19.1,11.15-20.7-30.25,13.54,7.16L520,380.38l-32.36,60.5,16.18-4.78-27.81,55.2-6.41-17.92,8.41,11.32-10.18-34.76,6.2,6.47-8.41-21.82,5.75,3.23-8.92-29.91-9.22,24.25,6.64-4.85L448,458l7.27-7.28-13,29.1,10.14-8.08-12.12,28.44-30-54.73,20.6,12.78-26.44-46,14.75,11.5-24.26-48.57,13.48,7.67L389.69,344.5l-18.12,47.3,11.68-5.12L366.18,421.2,378.76,411l-20.67,55L375.16,448l-28.75,62.63,22.46-11.5-32.07,66-20.28-29.64,13.53,7.17-23.37-42.19-32.35,60.5,16.17-4.78-27.81,55.19-6.4-17.91,8.4,11.31-10.17-34.75,6.19,6.46-8.41-21.82,5.76,3.24-8.93-29.91-9.21,24.25,6.63-4.85-11.94,30.71,7.26-7.27-13,29.09L239,591.93l-12.12,28.45-29.94-54.73,20.59,12.78-26.43-46,14.75,11.51-24.26-48.57L195.05,503l-18.72-38.35L158.21,512l11.68-5.11-17.07,34.51,12.58-10.22-20.67,55,17.08-17.9-28.76,62.64,22.47-11.51-34.15,70.3,26.06-12.78L99.81,738.2l35-19.81L128,728.8C45.44,779.21,0,834.29,0,892v994.71H3551.83V892C3551.83,846,3523,801.7,3469.5,760.09ZM220.21,674.29l.86.51-.25.53Zm39.17-48.41,3.95,2.59-1.84,3Zm75.75-20.26,6.07,3.22L337.15,615l-5.33-7.48Zm137.61-99.91,3.95,2.6-1.84,3Zm10.17,10-3.45,7.76-1.59-4.19Zm139-62.62,2.55,1.31-.66,1.3Zm-7.69-23.21,3.19,1.43-.69,1.51Zm14.35,16.36-.17.33-.11-.13Zm93.79,20.55,2.13,1.51-.46,1.06Zm280-98.73,4,2.59-1.84,3Zm10.17,10-3.45,7.76-1.59-4.2Zm139-62.63,2.55,1.32-.66,1.3Zm-7.69-23.2,3.19,1.43-.69,1.51Zm14.35,16.36-.16.33-.12-.13Zm93.79,20.55,2.13,1.51-.46,1.06Zm188.82-18.26,1.89.82-6.66,13.71-3.82-10.13Zm2.52-.48-.29-.66.81-.42Zm253.51-47.16,2.55,1.32-.66,1.3ZM1689,240l3.19,1.43-.69,1.51Zm14.35,16.36-.17.33-.11-.13ZM1797.15,277l2.13,1.51-.46,1.06Zm464,185.45,4,2.6-1.84,3Zm149.12-52.62,2.55,1.31-.66,1.3Zm-7.69-23.21,3.2,1.43-.7,1.51Zm14.35,16.36-.16.33-.12-.13Zm93.79,20.55,2.14,1.51-.47,1.06ZM2714,483.9l2.14,1.22-.89,1.27Zm219.24,54.7,3.19,1.43-.69,1.52Zm108.14,36.91,2.13,1.51-.46,1.07Zm202,56.75,11.47-7.33.48.11-8.62,12.24Zm8.14,12.28c-.17-.27-.35-.54-.53-.8l2.28-1.9ZM1508.41,364.29l.85.5-.24.54Zm1432.86,198-.32-.44,1.23.63Zm213.12,38.65,2.44-.71,3.9,2.36-2.62,2.88Zm8.88-1.15-.59-1.27,2.39-.7Zm-42.7-8.81-2.8-5,1.18-.91,3.66,3Zm-72.27-24.79-.14-.29.41-.32Zm-101-11,.28-.2-.17.33Zm-227.89-60.42-.8-1.6,4-3.33Zm-18.82,4.15-1.65-2,3.37-1.47Zm-69-40.36-4.83-5.89,3-2.29,5.33,3.23Zm-41.74-19.63-2.81-5,1.18-.91,3.66,3Zm-72.28-24.78-.13-.29.4-.33Zm-174.9,42.7-.56-.78,1.61-.92ZM1918.07,312l-4.83-5.88,3-2.29,5.33,3.22Zm-41.75-19.62-2.8-5,1.18-.91,3.66,3Zm-72.27-24.78-.14-.29.41-.33Zm-174.9,42.7-.56-.78,1.61-.92ZM1553,307.43l-.35-1,1.14-.85Zm-5.45,8.44,1.36.89-.55,1.25Zm-174.81,48.31-4.83-5.88,3-2.29,5.33,3.22ZM1331,344.56l-2.8-5,1.18-.91,3.66,3Zm-72.27-24.78-.14-.29.41-.33Zm-174.91,42.7-.55-.78,1.61-.93Zm-120.73,54,.85.5-.24.54ZM843.23,501.84,838.4,496l3-2.29,5.33,3.23Zm-41.75-19.63-2.8-5,1.18-.91,3.66,3Zm-72.27-24.78-.14-.29.41-.33ZM554.3,500.13l-.55-.78,1.6-.92Zm-120.73,54,.85.5-.24.54Zm-88,48-1.07-1.86,3.68-2.08Zm-76.05,33.71-3.45,7.76-1.59-4.2Zm3149.3,60.86-8.18,17.94-5.25-7.71Zm-100.57-26.43-2.07,4-2.39-1Zm-70.71-47.06-4.14,9-6.83-10.31C3236,621,3241.25,621.88,3247.57,623.25Zm-63.13-91.11-27.12,38.68-5.2-13.78.33-.25,7.32,3.17-3.47-6.14Zm-53,43.29-6.64,9.46-1.33-3.32Zm-13.69,8.66-.6.8-1.35-2.38Zm-67-56.54-3.2,8-2.75-4.65Zm-5.57,14-3.83,9.62-8.62-18.7ZM2941,530.23,2934,517.18,2950.7,509Zm-4.26-19.84-3.13,6-5.25-9.87Zm-48,26.78-8.12,12.66-11.23-2.18Zm-37.64,7-.54-.94,2.11,1.24Zm-66.2-16.42-1.61-5.4,6.29-4.07Zm-6.76-2.06-2,5.18-4.79-.8Zm-18.23,2.48-6.06-1-4.49-5.9Zm-34.67-55.93-4.24,6-1.23-2.51Zm-18-15L2702.34,470l-12.85-27.51ZM2696,486.53l-1.76,4.6L2685,479.88Zm-49.75-48.9-11.05,15.76-2.49-5.33Zm-21.55,9.68-1.11,1.46-3.49-4.25Zm-24-23.91-6.64,9.46-1.33-3.32Zm-13.68,8.66-.61.8-1.34-2.38Zm-67-56.54-3.19,8-2.76-4.65Zm-5.56,14-3.84,9.62-8.62-18.7Zm-104.27-11.3-6.94-13.05,16.69-8.21ZM2406,358.35l-3.13,6-5.25-9.87Zm-59.49,63.21-4.46,8-2.89-5Zm-11.09,19.8-1.64,2.93-4.36-6.12Zm-57.74,3.18-9.15,14.86-2.29-6.41Zm-43.08,16.25-1.71,3.89-1-1.89Zm-8.13,1.2-2.93,6.88,6.57-4.81,2.44,1.39-1.76,4-10.89-.7-8.71-15.48Zm-73.53,2.79-3.38-5,7.72-3.95Zm-6-23.78-4.1,8.92-12.34-18.1Zm-137.81-97.72-13,20-4.5-5.48,8.59-7.14,1.86,1.13-.9-1.93Zm-13.19,4.84-5.68,8.06-18.75-22.83Zm-63.17-57-11.06,15.75-2.48-5.32Zm-21.55,9.67-1.12,1.47-3.49-4.25Zm-24-23.91-6.64,9.47-1.33-3.33Zm-13.69,8.67-.6.79-1.35-2.38Zm-67-56.55-3.2,8-2.75-4.65ZM1801,243l-3.83,9.63-8.62-18.7ZM1696.7,231.67l-6.94-13,16.69-8.22Zm-4.26-19.85-3.13,6-5.25-9.87Zm-59.5,63.2-4.45,8-2.89-5Zm-11.08,19.8-1.64,2.94-4.36-6.12Zm-70.85-2.5-1.85,4.3-4.68-13.08Zm-30,21.93-1.71,3.9-1-1.89Zm-8.14,1.21-2.92,6.88,6.57-4.81,2.44,1.39-6.36,14.52-15-26.67Zm-79.64-40.24-.33.87.59-.62,5.32,5.2-3.23-7.38L1450,258.2l-15.24,33.21-11.57-26Zm-45.84,68.07-11,15.75-2.49-5.32ZM1365.88,353l-1.12,1.47-3.49-4.25Zm-24-23.91-6.64,9.47-1.33-3.33Zm-13.69,8.67-.6.79-1.35-2.38Zm-67-56.55-3.2,8-2.75-4.65Zm-5.57,14-3.83,9.63-8.62-18.7ZM1151.4,283.86l-6.94-13.05,16.69-8.22ZM1147.14,264,1144,270l-5.25-9.87Zm-59.5,63.2-4.45,8-2.89-5ZM1076.56,347l-1.64,2.94-4.36-6.12Zm-57.74,3.18-9.15,14.87-2.29-6.41Zm-43.08,16.25-1.71,3.9-1-1.89Zm-8.14,1.21-2.92,6.87,6.57-4.8,2.44,1.39-6.36,14.52-15-26.67Zm-69.18-6.14L891,376.69,887,367.38ZM857.88,480.94l-11,15.76-2.49-5.33Zm-21.54,9.68-1.12,1.46-3.49-4.25Zm-24-23.91-6.64,9.46-1.33-3.32Zm-13.69,8.66-.6.8-1.35-2.38Zm-67-56.54-3.2,8-2.75-4.65Zm-5.57,14-3.83,9.62-8.62-18.7Zm-104.26-11.3-6.94-13.05,16.69-8.21Zm-4.27-19.85-3.12,6-5.25-9.87ZM558.1,464.87l-4.45,8-2.89-5ZM547,484.67l-1.64,2.93L541,481.48Zm-57.75,3.18-9.14,14.86-2.29-6.41ZM446.19,504.1l-1.7,3.89-1-1.89Zm-8.13,1.2-2.93,6.88,6.58-4.81,2.44,1.39-6.36,14.53-15-26.68Zm-101.4,60.2-1.93,4,26.06-12.79L337,587.32l-18.9-32.64ZM275.92,608l-9.15,14.87-2.29-6.41Zm-43.08,16.25-1.71,3.9-1-1.89Zm-8.13,1.21-2.93,6.87,6.57-4.8,2.44,1.39-6.36,14.52-15-26.67Z"/></g></g></svg>